<svg width="14" height="15" viewBox="0 0 14 15" fill="none" xmlns="http://www.w3.org/2000/svg">
<path d="M12.6026 5.22176C12.1001 4.66676 11.3426 4.34426 10.2926 4.23176V3.66176C10.2926 2.63426 9.85762 1.64426 9.09262 0.954256C8.32012 0.249256 7.31512 -0.0807437 6.27262 0.0167563C4.48012 0.189256 2.97262 1.92176 2.97262 3.79676V4.23176C1.92262 4.34426 1.16512 4.66676 0.662622 5.22176C-0.0648782 6.03176 -0.0423781 7.11176 0.0401219 7.86176L0.565122 12.0393C0.722622 13.5018 1.31512 15.0018 4.54012 15.0018H8.72512C11.9501 15.0018 12.5426 13.5018 12.7001 12.0468L13.2251 7.85426C13.3076 7.11176 13.3226 6.03176 12.6026 5.22176ZM6.37762 1.05926C7.12762 0.991756 7.84012 1.22426 8.39512 1.72676C8.94262 2.22176 9.25012 2.92676 9.25012 3.66176V4.18676H4.01512V3.79676C4.01512 2.46176 5.11762 1.17926 6.37762 1.05926ZM3.94762 8.36426H3.94012C3.52762 8.36426 3.19012 8.02676 3.19012 7.61426C3.19012 7.20176 3.52762 6.86426 3.94012 6.86426C4.36012 6.86426 4.69762 7.20176 4.69762 7.61426C4.69762 8.02676 4.36012 8.36426 3.94762 8.36426ZM9.19762 8.36426H9.19012C8.77762 8.36426 8.44012 8.02676 8.44012 7.61426C8.44012 7.20176 8.77762 6.86426 9.19012 6.86426C9.61012 6.86426 9.94762 7.20176 9.94762 7.61426C9.94762 8.02676 9.61012 8.36426 9.19762 8.36426Z" fill="white"/>
</svg>
