<svg width="15" height="12" viewBox="0 0 15 12" fill="none" xmlns="http://www.w3.org/2000/svg">
<path d="M15 2.65123V9.74998C15 10.3239 14.7808 10.8761 14.387 11.2937C13.9933 11.7112 13.4549 11.9626 12.882 11.9962L12.75 12H2.25C1.67609 12 1.12386 11.7807 0.706304 11.387C0.288745 10.9933 0.0374194 10.4549 0.00375009 9.88198L0 9.74998V2.65123L7.08375 7.37398L7.17075 7.42348C7.27328 7.47358 7.38589 7.49961 7.5 7.49961C7.61411 7.49961 7.72672 7.47358 7.82925 7.42348L7.91625 7.37398L15 2.65123Z" fill="#F7966C"/>
<path d="M12.75 0C13.56 0 14.2703 0.4275 14.6663 1.07025L7.5 5.84775L0.33375 1.07025C0.521797 0.764826 0.78016 0.508801 1.08728 0.323537C1.3944 0.138273 1.74137 0.0291422 2.09925 0.00524998L2.25 0H12.75Z" fill="#F7966C"/>
<path d="M15 2.65123V9.74998C15 10.3239 14.7808 10.8761 14.387 11.2937C13.9933 11.7112 13.4549 11.9626 12.882 11.9962L12.75 12H2.25C1.67609 12 1.12386 11.7807 0.706304 11.387C0.288745 10.9933 0.0374194 10.4549 0.00375009 9.88198L0 9.74998V2.65123L7.08375 7.37398L7.17075 7.42348C7.27328 7.47358 7.38589 7.49961 7.5 7.49961C7.61411 7.49961 7.72672 7.47358 7.82925 7.42348L7.91625 7.37398L15 2.65123Z" stroke="#F7966C"/>
<path d="M12.75 0C13.56 0 14.2703 0.4275 14.6663 1.07025L7.5 5.84775L0.33375 1.07025C0.521797 0.764826 0.78016 0.508801 1.08728 0.323537C1.3944 0.138273 1.74137 0.0291422 2.09925 0.00524998L2.25 0H12.75Z" stroke="#F7966C"/>
</svg>
