<svg width="14" height="14" viewBox="0 0 14 14" fill="none" xmlns="http://www.w3.org/2000/svg">
<path d="M12.2964 13.1637C10.8307 14.6295 7.077 13.2522 3.91233 10.0876C0.747671 6.92291 -0.629579 3.16923 0.836155 1.70348L1.80123 0.738408C2.46748 0.0721629 3.56528 0.0897742 4.25326 0.777745L5.74807 2.27256C6.43604 2.96053 6.45365 4.05834 5.78741 4.72459L5.58012 4.93187C5.22041 5.29159 5.18521 5.87188 5.51946 6.27692C5.84185 6.66761 6.18943 7.05676 6.56629 7.43361C6.94314 7.81047 7.33229 8.15805 7.72298 8.48044C8.12802 8.81469 8.70831 8.77949 9.06803 8.41978L9.27531 8.21249C9.94156 7.54625 11.0394 7.56386 11.7273 8.25183L13.2222 9.74664C13.9101 10.4346 13.9277 11.5324 13.2615 12.1987L12.2964 13.1637Z" fill="#F7966C" stroke="#F7966C" stroke-width="0.5"/>
</svg>
