<svg width="14" height="16" viewBox="0 0 14 16" fill="none" xmlns="http://www.w3.org/2000/svg">
<path d="M11.523 1.97704C12.7623 3.21614 13.4711 4.88863 13.4995 6.64085C13.5279 8.39308 12.8737 10.0877 11.6753 11.3663L11.523 11.5238L8.34079 14.7053C7.93701 15.1088 7.39495 15.3438 6.82441 15.3626C6.25387 15.3814 5.69751 15.1826 5.26804 14.8065L5.16004 14.7053L1.97704 11.523C0.711163 10.2572 0 8.54026 0 6.75004C0 4.95982 0.711163 3.24292 1.97704 1.97704C3.24292 0.711163 4.95982 0 6.75004 0C8.54026 0 10.2572 0.711163 11.523 1.97704ZM6.75004 4.50004C6.45457 4.50004 6.16199 4.55824 5.889 4.67131C5.61602 4.78439 5.36798 4.95012 5.15905 5.15905C4.95012 5.36798 4.78439 5.61602 4.67131 5.889C4.55824 6.16199 4.50004 6.45457 4.50004 6.75004C4.50004 7.04552 4.55824 7.3381 4.67131 7.61108C4.78439 7.88406 4.95012 8.1321 5.15905 8.34103C5.36798 8.54996 5.61602 8.7157 5.889 8.82877C6.16199 8.94184 6.45457 9.00004 6.75004 9.00004C7.34678 9.00004 7.91908 8.76299 8.34103 8.34103C8.76299 7.91908 9.00004 7.34678 9.00004 6.75004C9.00004 6.1533 8.76299 5.58101 8.34103 5.15905C7.91908 4.73709 7.34678 4.50004 6.75004 4.50004Z" fill="#F7966C"/>
</svg>
