<svg width="33" height="24" viewBox="0 0 33 24" fill="none" xmlns="http://www.w3.org/2000/svg">
<path d="M19.654 24C19.201 24 18.7842 23.7526 18.5673 23.3549C18.4158 23.0772 18.376 22.7522 18.4584 22.4467C19.3566 19.115 20.5224 15.4858 21.9559 11.5592C23.3538 7.88974 24.7777 4.42809 26.2275 1.17423C26.5467 0.457843 27.2595 0 28.0437 0H30.7008C31.989 0 32.9411 1.19983 32.659 2.45672C31.9442 5.64083 31.25 8.96887 30.5763 12.4408C29.8655 16.0495 29.2692 19.3377 28.7873 22.3055C28.629 23.2799 27.7905 24 26.8033 24H19.654ZM1.23763 24C0.784679 24 0.367903 23.7526 0.151007 23.3549C-0.000484765 23.0772 -0.0402877 22.7522 0.0420577 22.4467C0.940225 19.115 2.10607 15.4858 3.53959 11.5592C4.93747 7.88974 6.36133 4.42809 7.81116 1.17423C8.13036 0.457842 8.84313 0 9.62741 0H12.2845C13.5727 0 14.5248 1.19983 14.2427 2.45672C13.5279 5.64083 12.8337 8.96887 12.16 12.4408C11.4492 16.0495 10.8528 19.3377 10.3709 22.3055C10.2127 23.2799 9.37416 24 8.38702 24H1.23763Z" fill="#00569B"/>
</svg>
